HIERARCHY
ROOT Hips
{
	OFFSET 55.310501 45.591206 43.872097
	CHANNELS 6 Xposition Yposition Zposition Zrotation Xrotation Yrotation
	JOINT Chest
	{
		OFFSET -0.153500 1.163101 7.852402
		CHANNELS 6 Xposition Yposition Zposition Zrotation Xrotation Yrotation
		JOINT Chest2
		{
			OFFSET 0.000000 0.000000 3.343300
			CHANNELS 6 Xposition Yposition Zposition Zrotation Xrotation Yrotation
			JOINT Neck
			{
				OFFSET 0.000000 0.000000 7.785500
				CHANNELS 6 Xposition Yposition Zposition Zrotation Xrotation Yrotation
				JOINT Head
				{
					OFFSET 0.000000 0.000000 2.173901
					CHANNELS 6 Xposition Yposition Zposition Zrotation Xrotation Yrotation
					End Site
					{
						OFFSET 0.000000 0.000000 10.528198
					}
				}
			}
			JOINT LeftCollar
			{
				OFFSET 2.676300 -1.652401 4.938301
				CHANNELS 6 Xposition Yposition Zposition Zrotation Xrotation Yrotation
				JOINT LeftShoulder
				{
					OFFSET 4.299000 0.000000 0.000000
					CHANNELS 6 Xposition Yposition Zposition Zrotation Xrotation Yrotation
					JOINT LeftElbow
					{
						OFFSET 0.000000 0.000000 -10.245102
						CHANNELS 6 Xposition Yposition Zposition Zrotation Xrotation Yrotation
						JOINT LeftWrist
						{
							OFFSET 0.000000 0.000000 -12.703300
							CHANNELS 6 Xposition Yposition Zposition Zrotation Xrotation Yrotation
							End Site
							{
								OFFSET 0.000000 0.000000 -2.173901
							}
						}
					}
				}
			}
			JOINT RightCollar
			{
				OFFSET -2.534599 -1.686401 5.195000
				CHANNELS 6 Xposition Yposition Zposition Zrotation Xrotation Yrotation
				JOINT RightShoulder
				{
					OFFSET -4.144100 0.000000 0.000000
					CHANNELS 6 Xposition Yposition Zposition Zrotation Xrotation Yrotation
					JOINT RightElbow
					{
						OFFSET 0.000000 0.000000 -10.116501
						CHANNELS 6 Xposition Yposition Zposition Zrotation Xrotation Yrotation
						JOINT RightWrist
						{
							OFFSET 0.000000 0.000000 -12.937801
							CHANNELS 6 Xposition Yposition Zposition Zrotation Xrotation Yrotation
							End Site
							{
								OFFSET 0.000000 0.000000 -2.173901
							}
						}
					}
				}
			}
		}
	}
	JOINT LeftHip
	{
		OFFSET 2.175598 0.064499 -2.662899
		CHANNELS 6 Xposition Yposition Zposition Zrotation Xrotation Yrotation
		JOINT LeftKnee
		{
			OFFSET 0.000000 -0.000004 -18.585800
			CHANNELS 6 Xposition Yposition Zposition Zrotation Xrotation Yrotation
			JOINT LeftAnkle
			{
				OFFSET 0.000000 0.000000 -18.979500
				CHANNELS 6 Xposition Yposition Zposition Zrotation Xrotation Yrotation
				End Site
				{
					OFFSET 0.000000 -9.264000 0.000000
				}
			}
		}
	}
	JOINT RightHip
	{
		OFFSET -2.092400 -0.058102 -2.581200
		CHANNELS 6 Xposition Yposition Zposition Zrotation Xrotation Yrotation
		JOINT RightKnee
		{
			OFFSET 0.000000 -0.000004 -18.665001
			CHANNELS 6 Xposition Yposition Zposition Zrotation Xrotation Yrotation
			JOINT RightAnkle
			{
				OFFSET 0.000000 0.000000 -18.566601
				CHANNELS 6 Xposition Yposition Zposition Zrotation Xrotation Yrotation
				End Site
				{
					OFFSET 0.000000 -8.497601 0.000000
				}
			}
		}
	}
}
MOTION
Frames: 10
Frame Time: 0.041667
68.039391 -29.154888 43.144695 3090.407063 -7.283911 3.443443 -0.153498 1.163093 7.852399 5.152840 12.182328 -3.889366 -0.000001 0.000002 3.343296 -2.650795 -6.849994 0.099081 0.000010 -0.000002 7.785495 -22.501377 38.065583 4.221382 -0.000005 -0.000008 2.173907 -4.974981 6.433069 -7.827873 2.676313 -1.652402 4.938296 8.428767 6.203213 -17.276834 4.298988 0.000008 -0.000002 -413.363458 -23.951641 237.693971 -0.000009 -0.000005 -10.245106 -42.985130 714.518493 278.105960 0.000004 0.000010 -12.703302 1207.396363 -174.528395 555.924724 -2.534593 -1.686397 5.195001 -0.896004 7.947688 19.314585 -4.144094 -0.000001 -0.000001 227.698604 121.181558 -143.606449 -0.000002 -0.000002 -10.116500 -408.627870 -196.682824 -302.187732 0.000003 0.000000 -12.937792 -945.459592 -4.233667 19.432537 2.175590 0.064493 -2.662902 -1045.678357 -29.429448 -3.158942 -0.000000 0.000004 -18.585806 517.854397 -213.567639 -188.471816 -0.000010 -0.000003 -18.979500 675.042294 20.651255 -728.758180 -2.092396 -0.058101 -2.581207 1488.431545 30.652376 -0.713638 -0.000005 -0.000004 -18.665005 -1135.502120 28.790538 -1107.777016 -0.000015 -0.000005 -18.566601 682.804613 -7.562642 -73.084834
68.027489 -29.107594 43.217598 3090.390233 -7.494024 3.448537 -0.153503 1.163106 7.852403 5.309071 12.079108 -3.792310 0.000012 0.000004 3.343299 -2.766356 -6.796310 0.097572 -0.000006 0.000000 7.785506 -22.510956 37.906102 4.314013 -0.000017 0.000010 2.173904 -4.947682 6.373449 -7.880570 2.676296 -1.652400 4.938306 8.537148 6.235231 -17.146505 4.299001 -0.000013 0.000000 -413.249859 -23.513935 237.500704 0.000006 0.000001 -10.245106 -42.715364 710.033900 277.276119 0.000014 -0.000002 -12.703302 1208.024959 -174.567846 555.900846 -2.534601 -1.686396 5.195012 -0.451809 9.225597 19.718015 -4.144098 -0.000001 0.000002 224.887038 122.470715 -141.706194 -0.000002 -0.000005 -10.116482 -408.147653 -196.213522 -301.651480 -0.000002 0.000013 -12.937805 -944.657892 -3.362670 19.533638 2.175595 0.064494 -2.662899 -1046.665729 -28.850316 -3.961192 0.000000 0.000010 -18.585808 519.042304 -212.891710 -188.594760 -0.000005 0.000004 -18.979502 674.575273 20.756895 -728.417491 -2.092397 -0.058099 -2.581200 1489.151283 30.902843 -1.391955 -0.000006 0.000000 -18.665003 -1135.775765 28.318984 -1107.885316 -0.000013 -0.000000 -18.566605 682.511953 -7.458971 -73.410771
68.016891 -29.056789 43.283096 3090.461049 -7.601689 3.412879 -0.153496 1.163096 7.852403 5.456891 11.792743 -3.601590 0.000003 0.000006 3.343305 -2.880579 -6.678649 0.099993 -0.000001 -0.000008 7.785489 -22.640588 37.766974 4.366111 -0.000006 0.000002 2.173901 -4.958208 6.331094 -7.868809 2.676300 -1.652399 4.938289 7.973922 6.844218 -17.082085 4.298992 0.000000 0.000002 -412.540912 -23.547518 237.083953 0.000018 0.000003 -10.245094 -42.524454 709.974013 277.330706 0.000000 0.000001 -12.703300 1208.305598 -174.553448 555.912156 -2.534595 -1.686405 5.194994 -0.164413 9.537205 19.865014 -4.144114 0.000006 0.000002 223.276316 123.016488 -140.759885 -0.000002 -0.000010 -10.116498 -407.679320 -195.692214 -301.119108 -0.000008 -0.000004 -12.937801 -944.397689 -2.697588 19.563214 2.175604 0.064487 -2.662899 -1047.275419 -28.415250 -4.471120 -0.000003 0.000008 -18.585800 520.100382 -212.259630 -188.708373 -0.000004 -0.000003 -18.979500 673.841055 20.876589 -727.950852 -2.092400 -0.058100 -2.581195 1489.390723 31.095252 -1.786727 -0.000005 -0.000003 -18.665010 -1135.896850 27.906403 -1107.884878 -0.000006 -0.000005 -18.566603 682.324587 -7.340908 -73.718928
68.007401 -29.009304 43.347694 3090.523777 -7.701296 3.390741 -0.153493 1.163109 7.852408 5.415885 11.538797 -3.478163 0.000005 0.000009 3.343292 -2.866712 -6.544317 0.098954 0.000010 -0.000008 7.785502 -22.629383 37.504043 4.550236 -0.000005 0.000004 2.173905 -4.904189 6.271255 -7.937114 2.676302 -1.652402 4.938299 7.702596 7.001239 -17.136550 4.298996 -0.000010 0.000004 -412.086213 -23.657216 237.034120 0.000003 -0.000001 -10.245102 -42.471049 709.781838 277.415346 0.000000 0.000008 -12.703304 1208.462091 -174.539378 555.921937 -2.534588 -1.686408 5.195003 -0.053388 9.693733 20.469664 -4.144099 0.000006 0.000004 221.857043 123.793695 -139.927422 0.000002 -0.000005 -10.116494 -406.665338 -195.792427 -300.601161 -0.000003 0.000010 -12.937811 -943.622763 -2.087132 19.482495 2.175597 0.064497 -2.662897 -1047.574636 -28.073152 -4.823495 -0.000001 0.000000 -18.585798 520.744277 -211.758226 -188.728454 -0.000008 0.000002 -18.979500 673.279286 20.985157 -727.619069 -2.092388 -0.058099 -2.581195 1488.987905 31.170299 -1.852298 -0.000004 -0.000009 -18.665007 -1135.693475 27.660953 -1107.635495 -0.000006 -0.000002 -18.566597 682.313604 -7.212052 -73.995449
68.000290 -28.959591 43.405094 3090.676992 -7.806986 3.401115 -0.153498 1.163106 7.852404 5.433242 11.314548 -3.395437 0.000014 0.000005 3.343297 -2.943682 -6.419668 0.099648 0.000008 -0.000008 7.785497 -22.708950 37.239079 4.693832 -0.000001 -0.000002 2.173907 -4.892350 6.300914 -8.041731 2.676302 -1.652398 4.938299 7.348871 7.378382 -17.192226 4.299010 -0.000011 -0.000010 -411.551600 -23.873383 236.802495 0.000005 -0.000001 -10.245105 -42.376085 709.785117 277.503373 0.000000 0.000003 -12.703295 1208.971460 -174.515855 555.807245 -2.534598 -1.686400 5.195001 0.186611 9.978645 20.828831 -4.144104 -0.000006 -0.000004 220.286619 124.493516 -139.078771 0.000000 -0.000006 -10.116496 -405.949671 -195.799052 -300.107283 -0.000001 0.000004 -12.937802 -942.855268 -1.552218 19.185462 2.175595 0.064487 -2.662904 -1048.303554 -27.657885 -5.329281 -0.000005 0.000003 -18.585791 521.353148 -211.283405 -188.663567 -0.000003 -0.000004 -18.979500 673.093996 21.065710 -727.476618 -2.092397 -0.058102 -2.581204 1489.269309 31.348458 -2.315096 0.000002 -0.000015 -18.665005 -1135.872043 27.245336 -1107.668498 -0.000000 -0.000003 -18.566599 682.100339 -7.113934 -74.287036
67.991692 -28.907589 43.461998 3090.772942 -7.926196 3.401249 -0.153493 1.163098 7.852403 5.383325 11.100457 -3.351655 0.000006 0.000006 3.343298 -2.946534 -6.328236 0.097116 -0.000001 0.000002 7.785501 -22.794805 36.951006 4.935513 -0.000014 -0.000001 2.173903 -4.890214 6.282359 -8.099006 2.676291 -1.652402 4.938293 7.006107 7.492402 -17.175921 4.299003 -0.000004 0.000000 -410.823120 -23.772957 236.901560 0.000000 -0.000006 -10.245106 -42.359863 710.184055 277.505067 0.000002 0.000004 -12.703306 1209.845287 -174.488657 555.693754 -2.534599 -1.686402 5.194998 0.841814 9.116828 21.553632 -4.144103 0.000007 0.000002 220.778516 124.396582 -140.415985 -0.000002 -0.000012 -10.116504 -405.651738 -195.369488 -299.609007 -0.000006 -0.000005 -12.937814 -942.305684 -0.823792 18.761295 2.175608 0.064485 -2.662896 -1048.958159 -27.203166 -5.836106 -0.000006 -0.000001 -18.585796 521.871368 -210.782329 -188.560336 -0.000010 0.000007 -18.979504 672.992090 21.154564 -727.371324 -2.092387 -0.058101 -2.581197 1488.932390 31.458202 -2.444205 0.000001 0.000005 -18.665007 -1135.673476 26.975818 -1107.489383 0.000002 0.000002 -18.566595 682.042637 -6.995122 -74.584115
67.985497 -28.851101 43.510506 3090.827802 -8.033202 3.408726 -0.153506 1.163095 7.852405 5.487952 10.850126 -3.293809 0.000007 -0.000006 3.343304 -2.951806 -6.250151 0.098709 0.000005 0.000002 7.785505 -23.010233 36.764630 5.118154 0.000002 0.000004 2.173902 -4.905384 6.295195 -8.066763 2.676303 -1.652394 4.938298 6.800839 7.717755 -17.084460 4.299002 -0.000008 -0.000004 -410.331756 -23.640724 236.719385 0.000008 0.000002 -10.245110 -42.443485 710.380655 277.575227 0.000006 0.000012 -12.703304 1210.624584 -174.522357 555.612120 -2.534598 -1.686396 5.194997 0.927768 9.264779 21.798405 -4.144094 -0.000003 0.000006 219.454524 124.839643 -139.471561 0.000000 -0.000005 -10.116507 -405.128081 -195.391823 -298.968663 -0.000008 -0.000004 -12.937801 -942.159573 -0.936749 17.965822 2.175590 0.064491 -2.662899 -1049.349611 -26.821454 -6.272362 -0.000005 -0.000001 -18.585789 522.576189 -210.229398 -188.567139 -0.000005 0.000000 -18.979506 672.429829 21.250875 -726.990363 -2.092403 -0.058107 -2.581205 1489.023532 31.573434 -2.761066 -0.000004 -0.000012 -18.664997 -1135.747788 26.688320 -1107.385892 -0.000012 0.000003 -18.566599 681.958161 -6.883956 -74.835261
67.979195 -28.795986 43.564793 3090.860369 -8.142369 3.456085 -0.153503 1.163105 7.852412 5.563754 10.639317 -3.272468 0.000009 0.000005 3.343306 -2.974362 -6.158137 0.097697 0.000017 -0.000004 7.785496 -23.124471 36.522623 5.274705 -0.000013 0.000004 2.173904 -4.947191 6.213715 -8.001124 2.676310 -1.652404 4.938287 7.184395 7.367862 -17.181057 4.299003 -0.000008 -0.000002 -410.343941 -23.276240 236.953360 0.000005 0.000002 -10.245104 -42.518836 711.654130 277.801497 -0.000010 0.000015 -12.703293 1211.239957 -174.526141 555.569500 -2.534584 -1.686406 5.194994 0.945394 9.148631 22.171658 -4.144103 0.000004 0.000011 218.573785 125.196712 -138.844154 0.000002 -0.000005 -10.116502 -404.692151 -194.902986 -298.249445 0.000008 0.000002 -12.937795 -941.970622 -0.400591 17.778168 2.175594 0.064499 -2.662896 -1050.091861 -26.358035 -6.892212 -0.000001 0.000000 -18.585796 523.693444 -209.579000 -188.648773 -0.000008 0.000006 -18.979500 671.764459 21.345412 -726.508371 -2.092396 -0.058102 -2.581192 1489.342310 31.660727 -3.230106 -0.000003 0.000004 -18.665009 -1135.897069 26.360379 -1107.336824 -0.000002 -0.000001 -18.566599 681.801122 -6.814493 -75.055876
67.971802 -28.740978 43.625294 3090.933588 -8.228614 3.511165 -0.153506 1.163092 7.852398 5.737787 10.378285 -3.237059 -0.000010 0.000004 3.343308 -3.139986 -6.007116 0.093578 0.000000 -0.000002 7.785500 -23.290252 36.262485 5.336900 -0.000014 0.000005 2.173904 -5.001133 6.143800 -8.024840 2.676295 -1.652404 4.938296 7.434153 7.172144 -17.280932 4.299002 -0.000006 -0.000004 -410.146549 -22.893256 237.205858 0.000009 0.000001 -10.245106 -42.259494 711.963893 277.859144 0.000005 0.000006 -12.703299 1211.982425 -174.491526 555.467702 -2.534598 -1.686408 5.195002 1.026850 8.887530 22.654336 -4.144104 -0.000004 0.000006 217.773888 125.678595 -138.431146 0.000000 0.000008 -10.116496 -404.055577 -194.385299 -297.502823 -0.000002 0.000001 -12.937805 -941.837516 0.135275 17.634790 2.175595 0.064484 -2.662903 -1050.747669 -25.915222 -7.434663 -0.000004 -0.000002 -18.585800 524.725403 -208.923370 -188.728427 -0.000005 -0.000003 -18.979504 671.079746 21.441231 -726.015395 -2.092397 -0.058111 -2.581208 1489.770153 31.774494 -3.787003 0.000005 -0.000014 -18.665009 -1136.035968 25.894408 -1107.390810 -0.000007 -0.000006 -18.566603 681.498134 -6.750013 -75.366049
67.966591 -28.690289 43.683002 3090.953041 -8.291589 3.565694 -0.153514 1.163099 7.852400 5.847936 10.104163 -3.221359 0.000009 -0.000004 3.343302 -3.229728 -5.938569 0.093474 0.000000 -0.000002 7.785502 -23.438383 36.108102 5.460726 -0.000008 0.000004 2.173904 -5.090779 6.056744 -7.948976 2.676300 -1.652401 4.938299 5.936904 4.808715 -16.911916 4.298998 -0.000006 0.000001 -408.153991 -20.605866 239.441133 -0.000004 0.000004 -10.245112 -42.074898 712.221363 277.862532 -0.000012 0.000010 -12.703296 1212.824779 -174.443687 555.280938 -2.534605 -1.686402 5.195003 1.095444 8.747664 23.068744 -4.144102 -0.000003 0.000006 217.005246 126.044912 -137.888241 -0.000002 -0.000014 -10.116487 -403.499081 -193.996374 -296.725930 0.000006 0.000002 -12.937803 -941.324650 0.559869 17.111338 2.175587 0.064493 -2.662900 -1051.255288 -25.515008 -7.926662 -0.000007 -0.000002 -18.585808 525.753210 -208.250323 -188.809624 -0.000006 0.000005 -18.979498 670.310667 21.560604 -725.491110 -2.092402 -0.058104 -2.581206 1489.829057 31.799592 -4.021349 0.000003 -0.000004 -18.665003 -1135.914008 25.630992 -1107.366330 -0.000011 -0.000003 -18.566599 681.272465 -6.672596 -75.679309
